<?xml version="1.0" encoding="UTF-8" standalone="no"?>
<svg width="134px" height="30px" viewBox="0 0 134 30" version="1.1" xmlns="http://www.w3.org/2000/svg" xmlns:xlink="http://www.w3.org/1999/xlink">
    <!-- Generator: Sketch 41.2 (35397) - http://www.bohemiancoding.com/sketch -->
    <title>life-time_logo-ccc</title>
    <desc>Created with Sketch.</desc>
    <defs></defs>
    <g id="Page-1" stroke="none" stroke-width="1" fill="none" fill-rule="evenodd">
        <g id="life-time_logo-ccc" fill="#CCCCCC">
            <path d="M0,29.7933103 L0,0 L7.85699074,0 L7.85699074,22.3450345 L14.8878549,22.3450345 L14.8878549,29.7933103 L0,29.7933103 Z M16.1296296,29.7931034 L23.9876543,29.7931034 L23.9876543,0 L16.1296296,0 L16.1296296,29.7931034 Z M25.4351852,0 L25.4351852,29.7933103 L33.2932099,29.7933103 L33.2932099,18.0002069 L38.8765432,18.0002069 L38.8765432,11.3795172 L33.2932099,11.3795172 L33.2932099,7.24158621 L39.4969136,7.24158621 L39.4969136,0 L25.4351852,0 Z M40.7376543,0 L40.7376543,29.7933103 L54.7993827,29.7933103 L54.7993827,22.3450345 L48.595679,22.3450345 L48.595679,18.0002069 L54.1790123,18.0002069 L54.1790123,11.3795172 L48.595679,11.3795172 L48.595679,7.24158621 L54.7993827,7.24158621 L54.7993827,0 L40.7376543,0 Z M59.7623457,0 L59.7623457,7.24158621 L64.3117284,7.24158621 L64.3117284,29.7933103 L72.1697531,29.7933103 L72.1697531,7.24158621 L76.7191358,7.24158621 L76.7191358,0 L59.7623457,0 Z M77.9598765,29.7931034 L85.8179012,29.7931034 L85.8179012,0 L77.9598765,0 L77.9598765,29.7931034 Z M102.567901,0 L100.5,14.8967586 L98.4320988,0 L87.2654321,0 L87.2654321,29.7933103 L94.7098765,29.7933103 L94.7098765,13.2415862 L97.6049383,29.7933103 L103.395062,29.7933103 L106.291157,13.242 L106.290123,29.7933103 L113.734568,29.7933103 L113.734568,0 L102.567901,0 Z M115.182099,0 L115.182099,29.7933103 L129.243827,29.7933103 L129.243827,22.3450345 L123.040123,22.3450345 L123.040123,18.0002069 L128.623457,18.0002069 L128.623457,11.3795172 L123.040123,11.3795172 L123.040123,7.24158621 L129.243827,7.24158621 L129.243827,0 L115.182099,0 Z" id="Life-Time"></path>
            <path d="M131.819084,1.68278569 L132.177629,1.68278569 C132.405524,1.68278569 132.575111,1.64786302 132.575111,1.3940645 C132.575111,1.17011269 132.342275,1.13519001 132.158259,1.13519001 L131.819084,1.13519001 L131.819084,1.68278569 Z M131.416661,0.81154614 L132.18257,0.81154614 C132.691332,0.81154614 132.977338,0.975804542 132.977338,1.42898717 C132.977338,1.81232446 132.744699,1.96155798 132.444265,1.98653176 L132.987023,2.89756692 L132.565229,2.89756692 L132.070896,2.00642956 L131.819084,2.00642956 L131.819084,2.89756692 L131.416661,2.89756692 L131.416661,0.81154614 Z M132.138889,3.32577577 C132.890172,3.32577577 133.505667,2.70833474 133.505667,1.85719603 C133.505667,1.01072722 132.890172,0.398362154 132.138889,0.398362154 C131.37792,0.398362154 130.772111,1.01072722 130.772111,1.85719603 C130.772111,2.70833474 131.37792,3.32577577 132.138889,3.32577577 Z M132.138889,0 C133.122811,0 134,0.726878954 134,1.85719603 C134,2.99218301 133.122811,3.72413793 132.138889,3.72413793 C131.155164,3.72413793 130.277778,2.99218301 130.277778,1.85719603 C130.277778,0.726878954 131.155164,0 132.138889,0 L132.138889,0 Z" id="Registered-Trademark-Symbol"></path>
        </g>
    </g>
</svg>